<svg width="80" height="24" viewBox="0 0 80 24" fill="none" xmlns="http://www.w3.org/2000/svg">
<g filter="url(#filter0_i_1_2551)">
<rect width="24" height="24" rx="12" fill="#104127"/>
<path d="M10.452 6.62993C8.10894 7.30607 6.396 9.4773 6.396 12.05C6.396 14.6226 8.10894 16.7939 10.452 17.47V19.439C7.05388 18.7213 4.5 15.6866 4.5 12.05C4.5 8.4133 7.05388 5.37866 10.452 4.66094V6.62993ZM19.5 12.05C19.5 15.6866 16.9461 18.7213 13.548 19.439V17.47C15.8911 16.7939 17.604 14.6226 17.604 12.05C17.604 9.4773 15.8911 7.30607 13.548 6.62993V4.66094C16.9461 5.37866 19.5 8.4133 19.5 12.05Z" fill="url(#paint0_linear_1_2551)" fill-opacity="0.8" stroke="url(#paint1_linear_1_2551)" stroke-width="0.6"/>
</g>
<path d="M36.3938 19.4016C35.1688 19.4016 34.0719 19.1172 33.1031 18.5484C32.1406 17.9797 31.3813 17.1609 30.825 16.0922C30.275 15.0234 30 13.7391 30 12.2391C30 10.7328 30.2781 9.44531 30.8344 8.37656C31.3969 7.30156 32.1594 6.47969 33.1219 5.91094C34.0906 5.34219 35.1813 5.05781 36.3938 5.05781C37.1625 5.05781 37.8813 5.16719 38.55 5.38594C39.225 5.60469 39.825 5.92656 40.35 6.35156C40.875 6.77031 41.3031 7.28594 41.6344 7.89844C41.9719 8.50469 42.1938 9.19531 42.3 9.97031H39.75C39.6813 9.54531 39.5469 9.17031 39.3469 8.84531C39.1531 8.52031 38.9094 8.24531 38.6156 8.02031C38.3281 7.78906 38 7.61719 37.6313 7.50469C37.2625 7.38594 36.8656 7.32656 36.4406 7.32656C35.6781 7.32656 35.0031 7.51719 34.4156 7.89844C33.8281 8.27344 33.3688 8.82969 33.0375 9.56719C32.7063 10.2984 32.5406 11.1891 32.5406 12.2391C32.5406 13.3016 32.7063 14.1984 33.0375 14.9297C33.375 15.6547 33.8344 16.2047 34.4156 16.5797C35.0031 16.9484 35.675 17.1328 36.4313 17.1328C36.85 17.1328 37.2406 17.0797 37.6031 16.9734C37.9656 16.8609 38.2938 16.6953 38.5875 16.4766C38.8875 16.2516 39.1344 15.9828 39.3281 15.6703C39.5281 15.3516 39.6688 14.9859 39.75 14.5734H42.3C42.2063 15.2422 42 15.8703 41.6813 16.4578C41.3688 17.0391 40.9563 17.5516 40.4438 17.9953C39.9375 18.4328 39.3438 18.7766 38.6625 19.0266C37.9813 19.2766 37.225 19.4016 36.3938 19.4016Z" fill="#0D0D12"/>
<path d="M46.2844 5.24531V19.2141H43.8188V5.24531H46.2844Z" fill="#0D0D12"/>
<path d="M51.1313 19.4297C50.4625 19.4297 49.8625 19.3109 49.3313 19.0734C48.8 18.8297 48.3813 18.4734 48.075 18.0047C47.7688 17.5359 47.6156 16.9578 47.6156 16.2703C47.6156 15.6828 47.725 15.1953 47.9438 14.8078C48.1625 14.4203 48.4594 14.1109 48.8344 13.8797C49.2156 13.6484 49.6438 13.4734 50.1188 13.3547C50.5938 13.2297 51.0844 13.1422 51.5906 13.0922C52.2094 13.0234 52.7094 12.9641 53.0906 12.9141C53.4719 12.8641 53.7469 12.7828 53.9156 12.6703C54.0906 12.5578 54.1781 12.3828 54.1781 12.1453V12.0984C54.1781 11.5922 54.0281 11.1984 53.7281 10.9172C53.4281 10.6359 52.9906 10.4953 52.4156 10.4953C51.8094 10.4953 51.3281 10.6266 50.9719 10.8891C50.6219 11.1516 50.3844 11.4609 50.2594 11.8172L47.9625 11.4891C48.1438 10.8516 48.4438 10.3203 48.8625 9.89531C49.2813 9.46406 49.7906 9.14219 50.3906 8.92969C50.9969 8.71094 51.6656 8.60156 52.3969 8.60156C52.8969 8.60156 53.3969 8.66094 53.8969 8.77969C54.3969 8.89219 54.8563 9.08594 55.275 9.36094C55.6938 9.63594 56.0281 10.0047 56.2781 10.4672C56.5281 10.9297 56.6531 11.5078 56.6531 12.2016V19.2141H54.2813V17.7703H54.2063C54.0563 18.0578 53.8438 18.3297 53.5688 18.5859C53.3 18.8359 52.9625 19.0391 52.5563 19.1953C52.1563 19.3516 51.6813 19.4297 51.1313 19.4297ZM51.7594 17.6109C52.2594 17.6109 52.6906 17.5141 53.0531 17.3203C53.4156 17.1203 53.6969 16.8578 53.8969 16.5328C54.0969 16.2016 54.1969 15.8422 54.1969 15.4547V14.2266C54.1156 14.2891 53.9844 14.3484 53.8031 14.4047C53.6219 14.4547 53.4156 14.5016 53.1844 14.5453C52.9531 14.5891 52.725 14.6266 52.5 14.6578C52.2813 14.6891 52.0906 14.7141 51.9281 14.7328C51.5594 14.7828 51.2281 14.8672 50.9344 14.9859C50.6469 15.0984 50.4188 15.2547 50.25 15.4547C50.0813 15.6547 49.9969 15.9141 49.9969 16.2328C49.9969 16.6891 50.1625 17.0328 50.4938 17.2641C50.825 17.4953 51.2469 17.6109 51.7594 17.6109Z" fill="#0D0D12"/>
<path d="M58.4813 19.2141V8.73281H60.8719V10.4953H60.9844C61.1719 9.88281 61.5 9.41406 61.9688 9.08906C62.4375 8.75781 62.9719 8.59219 63.5719 8.59219C63.7031 8.59219 63.8531 8.59844 64.0219 8.61094C64.1969 8.62344 64.3406 8.63906 64.4531 8.65781V10.9266C64.3469 10.8891 64.1813 10.8578 63.9563 10.8328C63.7313 10.8078 63.5156 10.7953 63.3094 10.7953C62.8531 10.7953 62.4469 10.8922 62.0906 11.0859C61.7344 11.2797 61.4531 11.5453 61.2469 11.8828C61.0469 12.2203 60.9469 12.6141 60.9469 13.0641V19.2141H58.4813Z" fill="#0D0D12"/>
<path d="M65.3813 19.2141V8.73281H67.8469V19.2141H65.3813ZM66.6188 7.26094C66.225 7.26094 65.8875 7.12969 65.6063 6.86719C65.325 6.60469 65.1844 6.28906 65.1844 5.92031C65.1844 5.54531 65.325 5.22656 65.6063 4.96406C65.8875 4.70156 66.225 4.57031 66.6188 4.57031C67.0063 4.57031 67.3406 4.70156 67.6219 4.96406C67.9031 5.22656 68.0438 5.54219 68.0438 5.91094C68.0438 6.28594 67.9031 6.60469 67.6219 6.86719C67.3406 7.12969 67.0063 7.26094 66.6188 7.26094Z" fill="#0D0D12"/>
<path d="M74.2406 19.4203C73.2156 19.4203 72.3281 19.1953 71.5781 18.7453C70.8281 18.2953 70.2469 17.6641 69.8344 16.8516C69.4281 16.0391 69.225 15.0953 69.225 14.0203C69.225 12.9391 69.4281 11.9922 69.8344 11.1797C70.2469 10.3609 70.8281 9.72656 71.5781 9.27656C72.3281 8.82656 73.2156 8.60156 74.2406 8.60156C75.2656 8.60156 76.1531 8.82656 76.9031 9.27656C77.6531 9.72656 78.2344 10.3609 78.6469 11.1797C79.0594 11.9922 79.2656 12.9391 79.2656 14.0203C79.2656 15.0953 79.0594 16.0391 78.6469 16.8516C78.2344 17.6641 77.6531 18.2953 76.9031 18.7453C76.1531 19.1953 75.2656 19.4203 74.2406 19.4203ZM74.2406 17.4328C74.8094 17.4328 75.2781 17.2828 75.6469 16.9828C76.0156 16.6766 76.2906 16.2641 76.4719 15.7453C76.6594 15.2266 76.7531 14.6516 76.7531 14.0203C76.7531 13.3766 76.6594 12.7953 76.4719 12.2766C76.2906 11.7578 76.0156 11.3484 75.6469 11.0484C75.2781 10.7422 74.8094 10.5891 74.2406 10.5891C73.6844 10.5891 73.2188 10.7422 72.8438 11.0484C72.4688 11.3484 72.1875 11.7578 72 12.2766C71.8188 12.7953 71.7281 13.3766 71.7281 14.0203C71.7281 14.6516 71.8188 15.2266 72 15.7453C72.1875 16.2641 72.4688 16.6766 72.8438 16.9828C73.2188 17.2828 73.6844 17.4328 74.2406 17.4328Z" fill="#0D0D12"/>
<defs>
<filter id="filter0_i_1_2551" x="0" y="-2.4" width="24" height="26.4" filterUnits="userSpaceOnUse" color-interpolation-filters="sRGB">
<feFlood flood-opacity="0" result="BackgroundImageFix"/>
<feBlend mode="normal" in="SourceGraphic" in2="BackgroundImageFix" result="shape"/>
<feColorMatrix in="SourceAlpha" type="matrix" values="0 0 0 0 0 0 0 0 0 0 0 0 0 0 0 0 0 0 127 0" result="hardAlpha"/>
<feOffset dy="-2.4"/>
<feGaussianBlur stdDeviation="2.4"/>
<feComposite in2="hardAlpha" operator="arithmetic" k2="-1" k3="1"/>
<feColorMatrix type="matrix" values="0 0 0 0 1 0 0 0 0 1 0 0 0 0 1 0 0 0 0.64 0"/>
<feBlend mode="normal" in2="shape" result="effect1_innerShadow_1_2551"/>
</filter>
<linearGradient id="paint0_linear_1_2551" x1="12" y1="4.29994" x2="12" y2="27.8035" gradientUnits="userSpaceOnUse">
<stop offset="0.313079" stop-color="white"/>
<stop offset="1" stop-color="white" stop-opacity="0"/>
</linearGradient>
<linearGradient id="paint1_linear_1_2551" x1="39.5354" y1="-33.3206" x2="-6.12916" y2="3.96343" gradientUnits="userSpaceOnUse">
<stop stop-color="white"/>
<stop offset="1" stop-color="white" stop-opacity="0"/>
</linearGradient>
</defs>
</svg>
