<svg width="20" height="20" viewBox="0 0 20 20" fill="none" xmlns="http://www.w3.org/2000/svg">
<path d="M7.49996 16.6667C7.32843 16.6667 7.15863 16.6635 6.99086 16.6573M3.15197 12.5C2.22829 12.0577 1.66663 11.4736 1.66663 10.8333C1.66663 10.193 2.22829 9.60895 3.15197 9.16666M3.15197 12.5C2.22829 12.9423 1.66663 13.5264 1.66663 14.1667C1.66663 15.4739 4.0076 16.5467 6.99086 16.6573M3.15197 12.5C4.11405 12.9607 5.46887 13.2675 6.99086 13.3239M3.15197 9.16666C4.2201 9.67811 5.77232 9.99999 7.49996 9.99999C9.2276 9.99999 10.7798 9.67811 11.8479 9.16666M3.15197 9.16666C2.22829 8.72436 1.66663 8.14029 1.66663 7.49999C1.66663 6.85969 2.22829 6.27562 3.15197 5.83332M11.8479 9.16666C12.7716 8.72436 13.3333 8.14029 13.3333 7.49999C13.3333 6.85969 12.7716 6.27562 11.8479 5.83332M11.8479 9.16666C12.3552 9.40953 12.7532 9.69516 13.0091 10.0094M11.8479 5.83332C12.7716 5.39103 13.3333 4.80695 13.3333 4.16666C13.3333 2.78594 10.7216 1.66666 7.49996 1.66666C4.2783 1.66666 1.66663 2.78594 1.66663 4.16666C1.66663 4.80695 2.22829 5.39103 3.15197 5.83332M11.8479 5.83332C10.7798 6.34478 9.2276 6.66666 7.49996 6.66666C5.77232 6.66666 4.2201 6.34478 3.15197 5.83332M16.8479 14.1667C17.7716 13.7244 18.3333 13.1403 18.3333 12.5C18.3333 11.1928 15.9923 10.1199 13.0091 10.0094M16.8479 14.1667C15.7798 14.6781 14.2276 15 12.5 15C10.7723 15 9.2201 14.6781 8.15197 14.1667M16.8479 14.1667C17.7716 14.609 18.3333 15.193 18.3333 15.8333C18.3333 16.4736 17.7716 17.0577 16.8479 17.5C15.7798 18.0114 14.2276 18.3333 12.5 18.3333C10.7723 18.3333 9.2201 18.0114 8.15197 17.5C7.64475 17.2571 7.24669 16.9715 6.99086 16.6573M8.15197 14.1667C7.22829 14.609 6.66663 15.193 6.66663 15.8333C6.66663 16.122 6.7808 16.3993 6.99086 16.6573M8.15197 14.1667C7.64475 13.9238 7.24669 13.6381 6.99086 13.3239M13.0091 10.0094C12.8413 10.0032 12.6715 9.99999 12.5 9.99999C9.2783 9.99999 6.66663 11.1193 6.66663 12.5C6.66663 12.7887 6.7808 13.0659 6.99086 13.3239" stroke="#33CFFF" stroke-width="2"/>
</svg>
