<svg width="18" height="16" viewBox="0 0 18 16" fill="none" xmlns="http://www.w3.org/2000/svg">
<path fill-rule="evenodd" clip-rule="evenodd" d="M5.75273 3.6545C6.00902 2.79334 6.80738 2.16679 7.7499 2.16679C8.45715 2.16679 9.0824 2.51844 9.46029 3.0602C9.72359 3.43768 10.243 3.53024 10.6205 3.26694C10.998 3.00364 11.0906 2.48419 10.8273 2.10671C10.151 1.13723 9.02494 0.500122 7.7499 0.500122C6.04991 0.500122 4.61614 1.63066 4.15531 3.17908C4.02402 3.6202 4.27519 4.08422 4.71631 4.2155C5.15743 4.34678 5.62145 4.09561 5.75273 3.6545ZM2.79545 3.69348C3.17838 3.43818 3.28184 2.92078 3.02653 2.53785C2.77123 2.15492 2.25383 2.05146 1.8709 2.30676C0.937581 2.92902 0.524542 4.1106 0.711056 5.15979C0.848876 5.93507 1.30506 6.62803 2.06283 7.04789C1.70417 7.70146 1.49986 8.45226 1.49986 9.25012C1.49986 11.0323 2.51661 12.5752 3.99986 13.3334V14.6668C3.99986 15.127 4.37295 15.5001 4.83319 15.5001H7.74986C8.21009 15.5001 8.58319 15.127 8.58319 14.6668V13.8335H8.99985V14.6668C8.99985 15.127 9.37295 15.5001 9.83319 15.5001H12.7499C13.2101 15.5001 13.5832 15.127 13.5832 14.6668V13.5208C14.4614 13.1779 15.2067 12.5727 15.7241 11.8021C16.6179 11.7718 17.3332 11.0377 17.3332 10.1365V8.36379C17.3332 7.46259 16.6179 6.72845 15.7241 6.6981C15.3797 6.1851 14.9345 5.74573 14.4165 5.40812V3.41679C14.4165 2.95655 14.0434 2.58346 13.5832 2.58346C12.0428 2.58346 11.0364 3.5419 10.2293 4.66679H6.08319C4.97611 4.66679 3.95973 5.06013 3.16792 5.71333C2.6179 5.55117 2.41031 5.19611 2.352 4.86808C2.26694 4.38965 2.47886 3.90456 2.79545 3.69348ZM11.3599 5.96237C11.8709 5.19589 12.3033 4.71772 12.7499 4.46747V5.88992C12.7499 6.2063 12.929 6.49539 13.2123 6.63618C13.7685 6.91256 14.2246 7.36189 14.5096 7.91313C14.6527 8.18994 14.9382 8.36379 15.2499 8.36379H15.6665V10.1365L15.2499 10.1365C14.9382 10.1365 14.6527 10.3103 14.5096 10.5871C14.1198 11.3412 13.411 11.9027 12.5654 12.0945C12.1859 12.1806 11.9165 12.518 11.9165 12.9072V13.8335H10.6665V13.4168C10.6665 12.7264 10.1069 12.1668 9.41652 12.1668H8.16652C7.47617 12.1668 6.91652 12.7264 6.91652 13.4168V13.8335H5.66652V12.7867C5.66652 12.4336 5.44389 12.1187 5.11089 12.001C3.97695 11.6002 3.16652 10.5188 3.16652 9.25012C3.16652 8.44925 3.48821 7.72514 4.01136 7.1972C4.54084 6.66289 5.27277 6.33346 6.08319 6.33346H10.6665C10.9451 6.33346 11.2053 6.1942 11.3599 5.96237ZM12.3333 8.83346C12.7935 8.83346 13.1666 8.46036 13.1666 8.00012C13.1666 7.53988 12.7935 7.16679 12.3333 7.16679C11.873 7.16679 11.4999 7.53988 11.4999 8.00012C11.4999 8.46036 11.873 8.83346 12.3333 8.83346Z" fill="#808897"/>
</svg>
